# xmcd CD database file
#
# Track frame offsets:
#	150
#	9810
#	30235
#	44890
#	54972
#	62777
#	71327
#	86080
#	96117
#	108797
#	121645
#	131960
#	142540
#	163005
#
# Disc length: 2215 seconds
#
# Revision: 0
# Processed by: cddbd v1.5.1PL2 Copyright (c) Steve Scherf et al.
# Submitted via: CDex 1.51
#
DISCID=aa08a50e
DTITLE=Temperance Seven - That Certain Party
DYEAR=1900
DGENRE=Jazz
TTITLE0=My Sweet Virginia
TTITLE1=Runnin' Wild
TTITLE2=Cecilia
TTITLE3=Shepherd Of The Hills
TTITLE4=Whistling Rufus
TTITLE5=That Certain Party
TTITLE6=You're Driving Me Crazy
TTITLE7=Chili Bom Bom
TTITLE8=Rainy Day Blues
TTITLE9=What A Girl, What A Night
TTITLE10=Loch Ness Clarionet
TTITLE11=Happy Feet
TTITLE12=Am I Blue
TTITLE13=Hanschen Klein
EXTD=
EXTT0=
EXTT1=
EXTT2=
EXTT3=
EXTT4=
EXTT5=
EXTT6=
EXTT7=
EXTT8=
EXTT9=
EXTT10=
EXTT11=
EXTT12=
EXTT13=
PLAYORDER=
